<svg xmlns="http://www.w3.org/2000/svg" width="45.001" height="45" viewBox="0 0 45.001 45">
  <path id="instagram" d="M22.5,0c-6.106,0-6.874.028-9.273.135A16.579,16.579,0,0,0,7.763,1.181a11.017,11.017,0,0,0-3.985,2.6,11.045,11.045,0,0,0-2.6,3.985A16.481,16.481,0,0,0,.135,13.219C.028,15.623,0,16.388,0,22.5s.028,6.874.135,9.273a16.575,16.575,0,0,0,1.046,5.462A11.519,11.519,0,0,0,7.76,43.819a16.519,16.519,0,0,0,5.462,1.046c2.4.107,3.167.135,9.279.135s6.874-.028,9.276-.135a16.61,16.61,0,0,0,5.465-1.046,11.519,11.519,0,0,0,6.579-6.581,16.648,16.648,0,0,0,1.046-5.462c.107-2.4.135-3.164.135-9.276s-.028-6.877-.135-9.278A16.63,16.63,0,0,0,43.82,7.763a11.042,11.042,0,0,0-2.6-3.985,11,11,0,0,0-3.985-2.6A16.553,16.553,0,0,0,31.773.135C29.372.028,28.609,0,22.495,0H22.5ZM20.484,4.056H22.5c6.008,0,6.719.02,9.09.129a12.469,12.469,0,0,1,4.179.773A6.981,6.981,0,0,1,38.36,6.643a6.952,6.952,0,0,1,1.682,2.588,12.358,12.358,0,0,1,.773,4.177c.11,2.371.132,3.082.132,9.087s-.023,6.719-.132,9.09a12.447,12.447,0,0,1-.773,4.177,7.457,7.457,0,0,1-4.272,4.267,12.378,12.378,0,0,1-4.177.776c-2.371.107-3.083.132-9.09.132s-6.722-.025-9.093-.132a12.428,12.428,0,0,1-4.177-.776,6.97,6.97,0,0,1-2.588-1.682,6.975,6.975,0,0,1-1.688-2.587,12.431,12.431,0,0,1-.773-4.177c-.107-2.371-.129-3.082-.129-9.093s.023-6.716.129-9.087a12.449,12.449,0,0,1,.776-4.179A6.981,6.981,0,0,1,6.646,6.635,6.952,6.952,0,0,1,9.234,4.953a12.428,12.428,0,0,1,4.177-.776c2.076-.1,2.88-.124,7.074-.127v.006ZM34.513,7.791a2.7,2.7,0,1,0,2.7,2.7,2.7,2.7,0,0,0-2.7-2.7ZM22.5,10.946A11.556,11.556,0,1,0,34.06,22.5,11.555,11.555,0,0,0,22.5,10.946ZM22.5,15A7.5,7.5,0,1,1,15,22.5,7.5,7.5,0,0,1,22.5,15Z" fill="#a18ffd"/>
</svg>
