<?xml version="1.0" encoding="utf-8"?>
<!-- Generator: Adobe Illustrator 27.1.1, SVG Export Plug-In . SVG Version: 6.00 Build 0)  -->
<svg version="1.1" id="Capa_2_00000100361159822548696510000004738263597579745159_"
	 xmlns="http://www.w3.org/2000/svg" xmlns:xlink="http://www.w3.org/1999/xlink" x="0px" y="0px" viewBox="0 0 964.8 964.8"
	 style="enable-background:new 0 0 964.8 964.8;" xml:space="preserve">
<style type="text/css">
	.st0{fill:#A18FFD;}
	.st1{fill:#A18FFD;stroke:#A18FFD;stroke-width:1.6;stroke-miterlimit:10;}
</style>
<g id="imagotipo">
	<g>
		<path class="st0" d="M602,814.6c-85.3,0-127.9-43.7-127.9-131.1v-69.2l3.1-45.9l19.8,19.1l9.2,26.2v66.8
			c0,68.5,31.9,102.8,95.7,102.8"/>
		<path class="st0" d="M598.5,783.2c63.8,0,95.7-34.3,95.7-102.8V485h32.2v198.6c0,87.4-42.6,131.1-127.9,131.1"/>
		<g>
			<path class="st0" d="M708.8,386.8L693.1,420c-23.9,28.7-54.3,43.1-91,43.1c-33.1,0-60.9-11.2-83.3-33.7
				c-22.8-22.8-34.2-50.8-34.2-83.9s11.2-60.9,33.7-83.3c22.8-22.8,50.8-34.2,83.9-34.2c36.4,0,66.8,14.4,91,43.1l11.3,18.6
				 M669.4,278.1c-18.8-18.8-41.2-28.1-67.3-28.1s-49,9.2-67.4,27.6c-18.8,18.8-28.1,41.4-28.1,67.9s9.4,48.6,28.1,67.4
				c18.8,18.8,41.2,28.1,67.4,28.1s48.9-9.2,67.3-27.6c18.8-18.8,28.2-41.4,28.2-67.9S688.2,296.9,669.4,278.1z"/>
			<path class="st0" d="M602.1,467c-34.1,0-63.1-11.7-86.2-34.9c-23.5-23.5-35.4-52.6-35.4-86.7s11.7-63,34.9-86.2
				c23.5-23.5,52.7-35.4,86.8-35.4c37.5,0,69.1,14.9,94.1,44.5l11.6,19.2l-6.9,4.1L689.7,273c-23-27.1-52.6-41.1-87.6-41.1
				c-31.9,0-59.2,11.1-81.1,33c-21.6,21.6-32.5,48.7-32.5,80.5s11.1,59.2,33.1,81.1c21.5,21.6,48.7,32.5,80.5,32.5
				c35.2,0,64.7-13.9,87.6-41.3l15.5-32.7l7.3,3.4l-16.3,34C671.6,452.1,639.9,467,602.1,467L602.1,467z M602.1,445
				c-27.1,0-50.7-9.9-70.2-29.3c-19.4-19.5-29.3-43.1-29.3-70.2s9.9-51.3,29.2-70.7c19.1-19.1,42.7-28.8,70.2-28.8
				s50.7,9.9,70.2,29.3l0,0c19.5,19.4,29.3,43,29.3,70.1s-9.8,51.3-29.3,70.8C653.1,435.3,629.5,445,602.1,445L602.1,445z
				 M602.1,254c-25.3,0-47,8.9-64.5,26.4c-17.9,17.9-26.9,39.8-26.9,65s9.1,46.6,26.9,64.5c18.2,18.1,39.3,27,64.5,27
				s47-8.9,64.5-26.4c17.9-17.9,27-39.8,27-65.1s-9.1-46.6-27-64.5l0,0C648.7,263,627,254,602.1,254L602.1,254z"/>
		</g>
		<g>
			<path class="st1" d="M255.1,233c0-33.6,10.9-61.3,32.6-83c22-22.1,49.9-33.1,83.5-33.1s60.8,10.3,82.4,30.9
				c22,20.6,33.1,47.4,33.1,80.3H276.8 M429.8,157.1c-17-12.3-36.5-18.4-58.5-18.4c-46.3,0-76.7,22.8-91.1,68.3h181.7
				C458.2,186.4,447.5,169.8,429.8,157.1L429.8,157.1z"/>
			<path class="st1" d="M255.8,233h-1.3c0-33.7,11-61.7,32.8-83.5c22.1-22.1,50.3-33.3,84-33.3s61.2,10.5,82.9,31.1
				c22.1,20.7,33.3,47.8,33.3,80.8v0.7H276.8v-1.3h209.3c-0.1-32.2-11.2-58.8-32.9-79.1c-21.5-20.4-49-30.7-82-30.7
				s-61.2,11.1-83.1,32.9C266.7,172,255.8,199.7,255.8,233L255.8,233z M462.6,207.7H279.2l0.3-0.9c14.5-45.7,45.4-68.8,91.8-68.8
				c22.1,0,41.9,6.2,58.9,18.6c17.8,12.7,28.7,29.6,32.3,50.3L462.6,207.7L462.6,207.7z M281,206.3h180c-3.7-20-14.4-36.4-31.6-48.7
				l0,0c-16.8-12.2-36.4-18.3-58.1-18.3C325.8,139.3,295.4,161.9,281,206.3L281,206.3z"/>
		</g>
		<polygon class="st0" points="726.4,661 694.2,661 694.2,264.3 726.4,339.6 		"/>
		<path class="st0" d="M680.7,253c0,0,45.7,36.3,45.2,95.2l-15.1-3.8l-9.9-32.5L680.7,253L680.7,253z"/>
		<path class="st0" d="M482.4,964.8C216.4,964.8,0,748.4,0,482.4S216.4,0,482.4,0s482.4,216.4,482.4,482.4S748.4,964.8,482.4,964.8
			L482.4,964.8z M482.4,32C234.1,32,32,234.1,32,482.4s202,450.4,450.4,450.4s450.4-202,450.4-450.4S730.7,32,482.4,32L482.4,32z"/>
		<path class="st0" d="M378.2,466.1c-45,0-77.2,16-96.5,47.9V219.5l-30.1,9.3c-0.3,5.3-0.5,10.9-0.5,17V795h30.7V583.9
			c0-26.2,9.6-47.1,29-62.8c18.8-15.7,41.3-23.5,67.5-23.5c63.8,0,95.7,34.3,95.7,102.8v73.4l32.2,9.2v-85.7
			C506.1,509.8,463.5,466.1,378.2,466.1L378.2,466.1z"/>
	</g>
</g>
</svg>
