<?xml version="1.0" encoding="utf-8"?>
<!-- Generator: Adobe Illustrator 27.1.1, SVG Export Plug-In . SVG Version: 6.00 Build 0)  -->
<svg version="1.1" id="Capa_2_00000096776983427190872800000002153686927974575254_"
	 xmlns="http://www.w3.org/2000/svg" xmlns:xlink="http://www.w3.org/1999/xlink" x="0px" y="0px" viewBox="0 0 964.8 964.8"
	 style="enable-background:new 0 0 964.8 964.8;" xml:space="preserve">
<style type="text/css">
	.st0{fill:#F2C979;}
</style>
<path id="Unión_5" class="st0" d="M482.5,963.9C216.6,963.9,1,748.3,1,482.4S216.6,0.9,482.5,0.9S964,216.5,964,482.4
	C963.7,748.2,748.3,963.6,482.5,963.9z M33,482.4c0,248.3,201.3,449.5,449.5,449.5c248.3,0,449.5-201.3,449.5-449.5
	c0-248.3-201.3-449.5-449.5-449.5C234.3,33.1,33.2,234.2,33,482.4z M600.1,814h-1.8v0c-82.8-1.2-124.2-44.8-124.1-130.8v-9.8l-0.1,0
	v-73.2c0-68.4-31.9-102.6-95.6-102.6c-24.6-0.5-48.5,7.8-67.4,23.5c-19.1,15.1-29.8,38.4-29,62.7v210.7h-30.6V246.2
	c0-5.7,0.2-11,0.5-15.9c0.6-32.2,11.2-59.1,32.2-80.1c22.2-22.1,52.5-34.1,83.9-33.2c33.6,0,61.1,10.4,82.7,31
	c22.1,20.6,33.3,47.7,33.3,80.6v0.7H282.2V514c19.3-31.8,51.4-47.7,96.4-47.8l0,0c85.1,0,127.7,43.6,127.7,130.8v16l0.1,0.4v66.7
	c0,67.6,31.1,101.8,93.3,102.6c62.9-0.4,94.3-34.6,94.3-102.6v-19.4l-0.5-235.2c-22.7,26.9-56.3,42.2-91.5,41.6l0,0
	c-66.2,0.9-120.5-52.1-121.4-118.2c0-1.1,0-2.1,0-3.2c0.1-67.1,54.5-121.4,121.5-121.3c36.3,0,70.7,16.3,93.8,44.4l1,1.6
	c18,21.5,28.2,48.6,28.8,76.7l0.1,1.4l0.2,136.6h0.2v198.1c0,86-41.4,129.6-124.1,130.8v0L600.1,814z M537.5,280.8
	c-17.5,17-27.2,40.5-26.9,64.9c0,50.5,41,91.4,91.5,91.3c24,0,47.1-9.5,64.2-26.4c17.6-17,27.3-40.5,27-65
	c0.3-24.3-9.4-47.6-26.9-64.4l0,0C630.9,245.6,573.2,245.4,537.5,280.8L537.5,280.8z M278.1,206.9L278.1,206.9h179.7
	c-3.6-19.8-15-37.3-31.6-48.6c-16.9-12.2-37.2-18.6-58-18.3C322.8,140,292.5,162.5,278.1,206.9z"/>
</svg>
