<svg xmlns="http://www.w3.org/2000/svg" width="45" height="45" viewBox="0 0 45 45">
  <path id="pinterest" d="M22.511,0a22.5,22.5,0,0,0-8.2,43.458A21.593,21.593,0,0,1,14.388,37c.411-1.758,2.638-11.185,2.638-11.185a8.124,8.124,0,0,1-.672-3.338c0-3.13,1.814-5.465,4.073-5.465,1.918,0,2.846,1.44,2.846,3.17,0,1.929-1.229,4.815-1.865,7.49a3.269,3.269,0,0,0,3.333,4.067c4,0,7.073-4.219,7.073-10.3,0-5.386-3.873-9.152-9.4-9.152a9.738,9.738,0,0,0-10.159,9.762,8.763,8.763,0,0,0,1.673,5.136.675.675,0,0,1,.158.647c-.172.709-.551,2.239-.624,2.551-.1.411-.326.5-.754.3C9.9,29.368,8.142,25.259,8.142,21.957c0-7.1,5.158-13.612,14.867-13.612,7.8,0,13.871,5.56,13.871,12.994,0,7.754-4.891,13.995-11.675,13.995-2.281,0-4.424-1.184-5.158-2.585l-1.4,5.349a25.176,25.176,0,0,1-2.8,5.9A22.5,22.5,0,1,0,22.511,0Z" transform="translate(0.006)" fill="#a18ffd"/>
</svg>
